:SAMPLES-PER-SECOND 30
:FULLY-SPECIFIED
:DEGREES
454
root  15.7581 37.5084 -0.348603 64.7053 85.3494 69.6021
RightUpLeg  -22.2448 -8.04133 -6.72482
RightLeg  -3.00139 3.2314 -0.356701
RightFoot  -7.71982 -0.289715 7.41957
RightToes  2.91037e-010 0 -3.6325e-017
Spine  12.3151 -1.35393 -1.7417
Spine1  10.7876 -1.12776 -1.53965
HEad  -33.4798 2.98367 -4.11407
LeftShoulder1  0.139813 3.12998 -31.3342
LeftArm  -1.53313 4.55289 -41.0718
LeftForeArm  25.6792 -45.0686 -9.43026
LeftHand  -0.207172 -0.385226 4.25179
RightShoulder  -0.501401 -4.93918 28.0682
RightArm  20.8111 -15.3207 43.3865
RightForeArm  -6.91795 20.5292 5.3041
RightHand  -0.878692 5.84856 -9.35847
LeftUpLeg  16.264 2.85775 -5.9479
LeftLeg  16.1848 -4.96721 -0.451884
LeftFoot  -23.4377 0.877056 6.9406
LeftToes  -7.53974e-010 3.3384e-011 -1.25048e-011
455
root  17.5578 37.0184 -0.0412408 67.8632 85.6881 73.101
RightUpLeg  -24.0446 -7.4982 -6.2955
RightLeg  1.23882 2.36579 -0.355772
RightFoot  -7.9737 -0.239345 5.85921
RightToes  2.91037e-010 0 -3.6325e-017
Spine  12.7251 -1.49819 -1.05755
Spine1  10.8731 -1.31634 -1.29839
HEad  -34.4611 2.96309 -4.67841
LeftShoulder1  0.0872521 3.27346 -31.7823
LeftArm  -2.44276 3.65579 -41.5551
LeftForeArm  26.5319 -47.08 -10.1207
LeftHand  -0.211017 -0.0948647 4.50902
RightShoulder  -0.463491 -4.84682 27.5885
RightArm  18.7292 -16.373 43.4974
RightForeArm  -5.61925 19.8167 5.25126
RightHand  -0.660235 4.15896 -8.301
LeftUpLeg  19.132 2.04034 -5.2381
LeftLeg  17.5997 -4.82947 -0.768493
LeftFoot  -25.1622 0.799913 5.37661
LeftToes  -7.53974e-010 3.3384e-011 -1.25048e-011
456
root  19.4932 36.5173 0.321899 78.0615 86.4985 83.2505
RightUpLeg  -25.9697 -7.51616 -5.35535
RightLeg  8.4085 0.817285 0.0447843
RightFoot  -6.05567 -0.151169 4.2279
RightToes  2.91037e-010 0 -3.6325e-017
Spine  12.5331 -2.10121 0.397146
Spine1  10.9042 -1.75018 -1.60386
HEad  -35.4533 3.30246 -5.29694
LeftShoulder1  0.105816 3.22086 -31.3532
LeftArm  -3.24821 3.61756 -42.5778
LeftForeArm  27.0082 -48.3098 -10.579
LeftHand  -0.254183 -0.616323 5.01016
RightShoulder  -0.543094 -5.05086 28.2963
RightArm  18.2627 -16.6438 42.4569
RightForeArm  -5.75203 19.2635 5.2964
RightHand  -0.724949 5.10106 -8.30596
LeftUpLeg  21.1433 0.466024 -3.93808
LeftLeg  20.3003 -4.83 -1.54418
LeftFoot  -26.278 0.520108 2.73421
LeftToes  -7.53974e-010 3.3384e-011 -1.25048e-011
457
root  21.3896 36.2873 0.645262 114.202 88.242 118.787
RightUpLeg  -28.4737 -8.5763 -2.9632
RightLeg  15.6946 0.73667 0.364816
RightFoot  2.83855 0.116368 -1.23475
RightToes  2.91037e-010 0 -3.6325e-017
Spine  12.1276 -2.81321 2.99037
Spine1  11.0402 -2.62121 -0.30575
HEad  -35.9126 3.80382 -6.02505
LeftShoulder1  0.0623463 3.34053 -31.9683
LeftArm  -2.48482 3.8787 -42.6237
LeftForeArm  26.6833 -48.8466 -10.8271
LeftHand  -0.273929 -0.967288 5.13936
RightShoulder  -0.497059 -4.93907 27.7707
RightArm  16.502 -17.4393 42.2748
RightForeArm  -4.82402 18.5324 5.23913
RightHand  -0.721149 5.31922 -8.11091
LeftUpLeg  22.0666 -0.666984 -1.17175
LeftLeg  23.2754 -6.041 -2.53342
LeftFoot  -24.9283 0.0582782 -0.739042
LeftToes  -7.53974e-010 3.3384e-011 -1.25048e-011
458
root  23.3629 35.92 0.949389 -29.7289 89.4646 -24.9613
RightUpLeg  -30.0611 -7.31433 -0.578128
RightLeg  23.7596 1.32808 0.414695
RightFoot  6.33399 0.0132562 0.216042
RightToes  2.91037e-010 0 -3.6325e-017
Spine  13.3249 -3.37972 7.89658
Spine1  9.27217 -1.90904 -2.27559
HEad  -35.4184 3.61843 -6.90109
LeftShoulder1  0.164372 3.07131 -31.9343
LeftArm  -1.96823 4.60397 -43.3168
LeftForeArm  27.0884 -48.4338 -10.625
LeftHand  -0.251384 -1.26121 4.53566
RightShoulder  -0.548632 -5.06778 28.2846
RightArm  15.0203 -17.9061 41.46
RightForeArm  -5.0759 17.9531 5.2001
RightHand  -0.749687 5.84254 -8.05251
LeftUpLeg  21.8704 0.218382 2.62826
LeftLeg  30.3025 -7.43436 -4.38426
LeftFoot  -21.5195 -0.32164 -5.3084
LeftToes  -7.53974e-010 3.3384e-011 -1.25048e-011
459
root  25.2428 35.6249 1.25745 -69.6393 87.0536 -64.9263
RightUpLeg  -31.1306 -7.10658 2.21734
RightLeg  31.0853 2.41947 1.32068
RightFoot  4.15628 0.364756 -2.50192
RightToes  2.91037e-010 0 -3.6325e-017
Spine  14.2063 -3.677 11.59
Spine1  8.20657 -1.33031 -2.99381
HEad  -35.3564 4.29484 -7.93701
LeftShoulder1  0.251602 2.83645 -31.5786
LeftArm  -0.775911 5.30074 -44.2509
LeftForeArm  26.2129 -47.9476 -10.4915
LeftHand  -0.241234 -0.524476 4.82101
RightShoulder  -0.421233 -4.72135 27.5992
RightArm  14.2712 -16.9397 41.8243
RightForeArm  -5.80596 16.7413 5.36925
RightHand  -0.785981 5.88383 -8.3911
LeftUpLeg  18.2284 1.88057 6.45223
LeftLeg  41.2542 -7.01928 -6.049
LeftFoot  -11.5529 0.0638885 -9.18381
LeftToes  -7.53974e-010 3.3384e-011 -1.25048e-011
460
root  26.9252 35.4308 1.61692 -76.3501 85.9207 -71.7038
RightUpLeg  -31.2568 -7.76447 3.86366
RightLeg  36.806 2.30529 1.56662
RightFoot  -0.209353 0.387499 -3.96111
RightToes  2.91037e-010 0 -3.6325e-017
Spine  14.7815 -3.75921 12.1567
Spine1  8.16155 -1.65052 -0.627671
HEad  -35.6588 5.44225 -8.54208
LeftShoulder1  0.336704 2.61508 -31.7831
LeftArm  1.11459 4.7899 -44.8767
LeftForeArm  25.5916 -47.5846 -10.3922
LeftHand  -0.246346 -0.692118 4.80563
RightShoulder  -0.305588 -4.40956 26.5676
RightArm  13.5719 -14.9896 42.3923
RightForeArm  -6.52468 16.624 5.37023
RightHand  -0.841717 5.81672 -9.00807
LeftUpLeg  11.306 1.51607 8.00027
LeftLeg  53.8043 -3.32253 -4.31494
LeftFoot  4.37409 1.12661 -8.94614
LeftToes  -7.53974e-010 3.3384e-011 -1.25048e-011
461
root  28.4278 35.3013 1.94037 -96.3897 84.6788 -91.2171
RightUpLeg  -29.9106 -8.87432 5.37539
RightLeg  40.7523 1.65339 1.23338
RightFoot  -4.37696 0.24453 -4.4893
RightToes  2.91037e-010 0 -3.6325e-017
Spine  15.4691 -4.29608 13.6828
Spine1  8.57901 -1.94376 0.567662
HEad  -36.1528 5.0977 -8.01163
LeftShoulder1  0.401381 2.4453 -31.8324
LeftArm  3.52858 2.96282 -45.3102
LeftForeArm  26.6044 -47.3351 -10.2176
LeftHand  -0.234135 -0.961515 4.39909
RightShoulder  -0.291397 -4.3617 26.6872
RightArm  12.444 -13.1006 42.2889
RightForeArm  -5.83764 18.6205 4.98887
RightHand  -0.690513 4.7677 -8.17589
LeftUpLeg  4.12955 0.378833 9.3974
LeftLeg  64.6675 -1.20086 -2.28957
LeftFoot  13.8247 1.0127 -4.68018
LeftToes  -7.53974e-010 3.3384e-011 -1.25048e-011
462
root  30.0917 35.5099 2.2411 -91.4715 84.2169 -85.7137
RightUpLeg  -26.8728 -8.33972 5.8932
RightLeg  42.1617 1.52993 1.17622
RightFoot  -7.6187 0.0990775 -4.55285
RightToes  2.91037e-010 0 -3.6325e-017
Spine  16.0344 -4.06279 14.8408
Spine1  8.25743 -1.28428 -0.204414
HEad  -35.7415 4.79001 -7.78763
LeftShoulder1  0.420355 2.39036 -31.7157
LeftArm  4.5711 2.31162 -45.4681
LeftForeArm  29.0376 -48.1826 -10.3763
LeftHand  -0.17847 -1.01697 3.36
RightShoulder  -0.339023 -4.50096 26.8528
RightArm  10.9628 -11.4223 42.2636
RightForeArm  -5.15859 21.5339 4.97099
RightHand  -0.655396 4.81924 -7.73348
LeftUpLeg  -1.8779 1.06334 9.62133
LeftLeg  72.1275 -1.32613 -3.72571
LeftFoot  8.97656 0.47574 -3.0134
LeftToes  -7.53974e-010 3.3384e-011 -1.25048e-011
463
root  31.7136 35.7804 2.47653 -87.255 84.1244 -81.2069
RightUpLeg  -23.5912 -8.04214 5.91177
RightLeg  42.4018 1.66701 1.31871
RightFoot  -10.5374 -0.0437253 -4.17549
RightToes  2.91037e-010 0 -3.6325e-017
Spine  16.3373 -3.86381 15.3668
Spine1  7.44977 -0.914443 -0.581528
HEad  -34.7873 4.89048 -8.0755
LeftShoulder1  0.27599 2.78762 -32.3901
LeftArm  5.39888 2.35001 -44.6097
LeftForeArm  29.2646 -49.0452 -10.7131
LeftHand  -0.206283 -0.963622 3.88039
RightShoulder  -0.285181 -4.35622 26.1902
RightArm  9.2255 -10.0719 42.8429
RightForeArm  -3.40096 24.7587 5.45913
RightHand  -0.642773 4.61994 -7.72655
LeftUpLeg  -7.95956 2.17747 9.20618
LeftLeg  75.8441 -1.50897 -5.69943
LeftFoot  6.66396 0.540009 -3.64975
LeftToes  -7.53974e-010 3.3384e-011 -1.25048e-011
464
root  33.3625 36.1182 2.7053 -82.2294 84.2184 -75.9907
RightUpLeg  -19.9307 -8.19932 5.69414
RightLeg  41.7308 1.9995 1.60204
RightFoot  -12.9324 -0.146779 -4.31912
RightToes  2.91037e-010 0 -3.6325e-017
Spine  15.6134 -3.51379 15.8995
Spine1  7.45952 -0.393599 -1.6649
HEad  -33.6681 4.68015 -7.97086
LeftShoulder1  0.276232 2.77675 -31.8898
LeftArm  4.83623 3.47124 -44.6973
LeftForeArm  28.6876 -49.5779 -10.9856
LeftHand  -0.245192 -1.73482 4.1666
RightShoulder  -0.364102 -4.58713 26.5676
RightArm  8.93653 -8.48423 42.6396
RightForeArm  -3.01926 28.4812 6.3312
RightHand  -0.723305 5.05436 -8.32642
LeftUpLeg  -13.515 3.50009 8.25092
LeftLeg  76.0006 -1.7992 -7.11293
LeftFoot  3.71559 0.393431 -3.14999
LeftToes  -7.53974e-010 3.3384e-011 -1.25048e-011
465
root  35.0196 36.5103 2.91195 -73.3959 84.321 -66.9561
RightUpLeg  -15.9222 -7.89568 5.19569
RightLeg  40.2766 2.46798 1.93886
RightFoot  -14.7055 -0.213317 -3.89108
RightToes  2.91037e-010 0 -3.6325e-017
Spine  15.0605 -2.85154 16.0427
Spine1  7.02179 0.294891 -2.50708
HEad  -32.3995 3.91712 -7.74387
LeftShoulder1  0.285778 2.75498 -32.0744
LeftArm  4.38353 4.71405 -43.8378
LeftForeArm  28.3914 -50.2456 -11.3002
LeftHand  -0.22638 -1.42121 4.00808
RightShoulder  -0.43578 -4.80267 26.6303
RightArm  7.96318 -8.05646 42.47
RightForeArm  -1.29143 33.2176 7.4477
RightHand  -0.750569 5.37006 -8.39032
LeftUpLeg  -18.0959 5.37364 7.2321
LeftLeg  72.7929 -2.48379 -8.10882
LeftFoot  0.473291 0.291893 -2.85264
LeftToes  -7.53974e-010 3.3384e-011 -1.25048e-011
466
root  36.6655 36.8931 3.07611 -64.8123 84.3707 -57.8841
RightUpLeg  -11.5932 -7.87444 4.36048
RightLeg  38.6171 3.29374 2.53004
RightFoot  -15.9949 -0.2338 -3.09349
RightToes  2.91037e-010 0 -3.6325e-017
Spine  14.5434 -2.30532 15.9337
Spine1  6.98738 0.82073 -3.24389
HEad  -31.0408 4.34861 -7.1749
LeftShoulder1  0.245661 2.8612 -32.1356
LeftArm  3.40622 5.92204 -43.2058
LeftForeArm  28.5358 -50.6376 -11.4656
LeftHand  -0.248648 -1.69573 4.24558
RightShoulder  -0.509455 -5.01832 26.822
RightArm  8.02574 -7.17475 42.2025
RightForeArm  -0.694859 37.4473 8.63018
RightHand  -0.742063 4.96666 -8.59971
LeftUpLeg  -21.321 7.09615 5.98468
LeftLeg  66.6426 -3.16568 -7.34025
LeftFoot  -1.31082 0.206832 -2.25403
LeftToes  -7.53974e-010 3.3384e-011 -1.25048e-011
